<mxfile host="app.diagrams.net" modified="2023-06-14T12:36:51.209Z" agent="Mozilla/5.0 (Windows NT 10.0; Win64; x64) AppleWebKit/537.36 (KHTML, like Gecko) Chrome/114.0.0.0 Safari/537.36" etag="NKRT5iMJXpPKcu2eMzX5" version="21.3.8" type="github">
  <diagram name="第 1 页" id="K7zoXfO9dcySKzYleY7c">
    <mxGraphModel dx="1050" dy="573" grid="1" gridSize="10" guides="1" tooltips="1" connect="1" arrows="1" fold="1" page="1" pageScale="1" pageWidth="827" pageHeight="1169" math="0" shadow="0">
      <root>
        <mxCell id="0" />
        <mxCell id="1" parent="0" />
        <mxCell id="Gi4iAj_zFG3pSqZzGjvw-44" value="" style="rounded=0;whiteSpace=wrap;html=1;align=center;" vertex="1" parent="1">
          <mxGeometry x="660" y="585" width="120" height="35" as="geometry" />
        </mxCell>
        <mxCell id="Gi4iAj_zFG3pSqZzGjvw-50" value="" style="rounded=0;whiteSpace=wrap;html=1;align=center;" vertex="1" parent="1">
          <mxGeometry x="660" y="585" width="120" height="35" as="geometry" />
        </mxCell>
        <mxCell id="Gi4iAj_zFG3pSqZzGjvw-51" value="" style="rounded=0;whiteSpace=wrap;html=1;align=center;" vertex="1" parent="1">
          <mxGeometry x="660" y="585" width="120" height="35" as="geometry" />
        </mxCell>
        <mxCell id="Gi4iAj_zFG3pSqZzGjvw-52" value="" style="rounded=0;whiteSpace=wrap;html=1;align=center;" vertex="1" parent="1">
          <mxGeometry x="660" y="585" width="120" height="35" as="geometry" />
        </mxCell>
        <mxCell id="Gi4iAj_zFG3pSqZzGjvw-53" value="" style="rounded=0;whiteSpace=wrap;html=1;align=center;" vertex="1" parent="1">
          <mxGeometry x="660" y="585" width="120" height="35" as="geometry" />
        </mxCell>
        <mxCell id="Gi4iAj_zFG3pSqZzGjvw-54" value="" style="rounded=0;whiteSpace=wrap;html=1;align=center;" vertex="1" parent="1">
          <mxGeometry x="660" y="585" width="120" height="35" as="geometry" />
        </mxCell>
        <mxCell id="Gi4iAj_zFG3pSqZzGjvw-55" value="" style="rounded=0;whiteSpace=wrap;html=1;align=center;" vertex="1" parent="1">
          <mxGeometry x="660" y="585" width="120" height="35" as="geometry" />
        </mxCell>
        <mxCell id="Gi4iAj_zFG3pSqZzGjvw-56" value="1G" style="rounded=0;whiteSpace=wrap;html=1;align=center;fillColor=#ffe6cc;strokeColor=#d79b00;" vertex="1" parent="1">
          <mxGeometry x="660" y="585" width="120" height="35" as="geometry" />
        </mxCell>
        <mxCell id="Gi4iAj_zFG3pSqZzGjvw-58" value="" style="rounded=0;whiteSpace=wrap;html=1;align=center;" vertex="1" parent="1">
          <mxGeometry x="660" y="620" width="120" height="35" as="geometry" />
        </mxCell>
        <mxCell id="Gi4iAj_zFG3pSqZzGjvw-59" value="" style="rounded=0;whiteSpace=wrap;html=1;align=center;" vertex="1" parent="1">
          <mxGeometry x="660" y="620" width="120" height="35" as="geometry" />
        </mxCell>
        <mxCell id="Gi4iAj_zFG3pSqZzGjvw-60" value="" style="rounded=0;whiteSpace=wrap;html=1;align=center;" vertex="1" parent="1">
          <mxGeometry x="660" y="620" width="120" height="35" as="geometry" />
        </mxCell>
        <mxCell id="Gi4iAj_zFG3pSqZzGjvw-61" value="" style="rounded=0;whiteSpace=wrap;html=1;align=center;" vertex="1" parent="1">
          <mxGeometry x="660" y="620" width="120" height="35" as="geometry" />
        </mxCell>
        <mxCell id="Gi4iAj_zFG3pSqZzGjvw-62" value="" style="rounded=0;whiteSpace=wrap;html=1;align=center;" vertex="1" parent="1">
          <mxGeometry x="660" y="620" width="120" height="35" as="geometry" />
        </mxCell>
        <mxCell id="Gi4iAj_zFG3pSqZzGjvw-63" value="" style="rounded=0;whiteSpace=wrap;html=1;align=center;" vertex="1" parent="1">
          <mxGeometry x="660" y="620" width="120" height="35" as="geometry" />
        </mxCell>
        <mxCell id="Gi4iAj_zFG3pSqZzGjvw-64" value="1G" style="rounded=0;whiteSpace=wrap;html=1;align=center;fillColor=#ffe6cc;strokeColor=#d79b00;" vertex="1" parent="1">
          <mxGeometry x="660" y="620" width="120" height="35" as="geometry" />
        </mxCell>
        <mxCell id="Gi4iAj_zFG3pSqZzGjvw-65" value="&amp;nbsp;A&amp;nbsp; &amp;nbsp;1G" style="rounded=0;whiteSpace=wrap;html=1;align=center;fillColor=#60a917;fontColor=#ffffff;strokeColor=#2D7600;" vertex="1" parent="1">
          <mxGeometry x="660" y="655" width="120" height="35" as="geometry" />
        </mxCell>
        <mxCell id="Gi4iAj_zFG3pSqZzGjvw-74" value="1G" style="rounded=0;whiteSpace=wrap;html=1;align=center;fillColor=#dae8fc;strokeColor=#6c8ebf;" vertex="1" parent="1">
          <mxGeometry x="660" y="690" width="120" height="40" as="geometry" />
        </mxCell>
        <mxCell id="Gi4iAj_zFG3pSqZzGjvw-75" value="1G" style="rounded=0;whiteSpace=wrap;html=1;align=center;fillColor=#dae8fc;strokeColor=#6c8ebf;" vertex="1" parent="1">
          <mxGeometry x="660" y="725" width="120" height="35" as="geometry" />
        </mxCell>
        <mxCell id="Gi4iAj_zFG3pSqZzGjvw-76" value="B&amp;nbsp; 1G" style="rounded=0;whiteSpace=wrap;html=1;align=center;fillColor=#60a917;fontColor=#ffffff;strokeColor=#2D7600;" vertex="1" parent="1">
          <mxGeometry x="660" y="760" width="120" height="35" as="geometry" />
        </mxCell>
        <mxCell id="Gi4iAj_zFG3pSqZzGjvw-77" value="" style="shape=table;startSize=0;container=1;collapsible=0;childLayout=tableLayout;" vertex="1" parent="1">
          <mxGeometry x="460" y="645" width="120" height="80" as="geometry" />
        </mxCell>
        <mxCell id="Gi4iAj_zFG3pSqZzGjvw-81" value="" style="shape=tableRow;horizontal=0;startSize=0;swimlaneHead=0;swimlaneBody=0;strokeColor=inherit;top=0;left=0;bottom=0;right=0;collapsible=0;dropTarget=0;fillColor=none;points=[[0,0.5],[1,0.5]];portConstraint=eastwest;" vertex="1" parent="Gi4iAj_zFG3pSqZzGjvw-77">
          <mxGeometry width="120" height="40" as="geometry" />
        </mxCell>
        <mxCell id="Gi4iAj_zFG3pSqZzGjvw-82" value="A" style="shape=partialRectangle;html=1;whiteSpace=wrap;connectable=0;strokeColor=inherit;overflow=hidden;fillColor=none;top=0;left=0;bottom=0;right=0;pointerEvents=1;" vertex="1" parent="Gi4iAj_zFG3pSqZzGjvw-81">
          <mxGeometry width="60" height="40" as="geometry">
            <mxRectangle width="60" height="40" as="alternateBounds" />
          </mxGeometry>
        </mxCell>
        <mxCell id="Gi4iAj_zFG3pSqZzGjvw-83" value="xA1" style="shape=partialRectangle;html=1;whiteSpace=wrap;connectable=0;strokeColor=inherit;overflow=hidden;fillColor=none;top=0;left=0;bottom=0;right=0;pointerEvents=1;" vertex="1" parent="Gi4iAj_zFG3pSqZzGjvw-81">
          <mxGeometry x="60" width="60" height="40" as="geometry">
            <mxRectangle width="60" height="40" as="alternateBounds" />
          </mxGeometry>
        </mxCell>
        <mxCell id="Gi4iAj_zFG3pSqZzGjvw-84" value="" style="shape=tableRow;horizontal=0;startSize=0;swimlaneHead=0;swimlaneBody=0;strokeColor=inherit;top=0;left=0;bottom=0;right=0;collapsible=0;dropTarget=0;fillColor=none;points=[[0,0.5],[1,0.5]];portConstraint=eastwest;" vertex="1" parent="Gi4iAj_zFG3pSqZzGjvw-77">
          <mxGeometry y="40" width="120" height="40" as="geometry" />
        </mxCell>
        <mxCell id="Gi4iAj_zFG3pSqZzGjvw-85" value="B" style="shape=partialRectangle;html=1;whiteSpace=wrap;connectable=0;strokeColor=inherit;overflow=hidden;fillColor=none;top=0;left=0;bottom=0;right=0;pointerEvents=1;" vertex="1" parent="Gi4iAj_zFG3pSqZzGjvw-84">
          <mxGeometry width="60" height="40" as="geometry">
            <mxRectangle width="60" height="40" as="alternateBounds" />
          </mxGeometry>
        </mxCell>
        <mxCell id="Gi4iAj_zFG3pSqZzGjvw-86" value="xA2" style="shape=partialRectangle;html=1;whiteSpace=wrap;connectable=0;strokeColor=inherit;overflow=hidden;fillColor=none;top=0;left=0;bottom=0;right=0;pointerEvents=1;" vertex="1" parent="Gi4iAj_zFG3pSqZzGjvw-84">
          <mxGeometry x="60" width="60" height="40" as="geometry">
            <mxRectangle width="60" height="40" as="alternateBounds" />
          </mxGeometry>
        </mxCell>
        <mxCell id="Gi4iAj_zFG3pSqZzGjvw-90" value="页表" style="rounded=0;whiteSpace=wrap;html=1;" vertex="1" parent="1">
          <mxGeometry x="460" y="610" width="120" height="35" as="geometry" />
        </mxCell>
        <mxCell id="Gi4iAj_zFG3pSqZzGjvw-105" style="edgeStyle=orthogonalEdgeStyle;rounded=0;orthogonalLoop=1;jettySize=auto;html=1;exitX=1;exitY=0.5;exitDx=0;exitDy=0;entryX=0.04;entryY=-0.02;entryDx=0;entryDy=0;entryPerimeter=0;" edge="1" parent="1" source="Gi4iAj_zFG3pSqZzGjvw-91" target="Gi4iAj_zFG3pSqZzGjvw-103">
          <mxGeometry relative="1" as="geometry">
            <Array as="points">
              <mxPoint x="280" y="690" />
              <mxPoint x="323" y="690" />
            </Array>
          </mxGeometry>
        </mxCell>
        <mxCell id="Gi4iAj_zFG3pSqZzGjvw-91" value="C程序" style="whiteSpace=wrap;html=1;aspect=fixed;fillColor=#60a917;fontColor=#ffffff;strokeColor=#2D7600;" vertex="1" parent="1">
          <mxGeometry x="200" y="645" width="80" height="80" as="geometry" />
        </mxCell>
        <mxCell id="Gi4iAj_zFG3pSqZzGjvw-96" value="&lt;font color=&quot;#808080&quot;&gt;A程序2G&lt;/font&gt;" style="text;html=1;align=center;verticalAlign=middle;resizable=0;points=[];autosize=1;strokeColor=none;fillColor=none;" vertex="1" parent="1">
          <mxGeometry x="590" y="610" width="70" height="30" as="geometry" />
        </mxCell>
        <mxCell id="Gi4iAj_zFG3pSqZzGjvw-97" value="&lt;font color=&quot;#666666&quot;&gt;B程序2G&lt;/font&gt;" style="text;html=1;align=center;verticalAlign=middle;resizable=0;points=[];autosize=1;strokeColor=none;fillColor=none;" vertex="1" parent="1">
          <mxGeometry x="585" y="708" width="70" height="30" as="geometry" />
        </mxCell>
        <mxCell id="Gi4iAj_zFG3pSqZzGjvw-98" value="&lt;font color=&quot;#00cc00&quot;&gt;xA1&lt;/font&gt;" style="text;html=1;align=center;verticalAlign=middle;resizable=0;points=[];autosize=1;strokeColor=none;fillColor=none;" vertex="1" parent="1">
          <mxGeometry x="620" y="645" width="40" height="30" as="geometry" />
        </mxCell>
        <mxCell id="Gi4iAj_zFG3pSqZzGjvw-99" value="&lt;font color=&quot;#00cc00&quot;&gt;xA2&lt;/font&gt;" style="text;html=1;align=center;verticalAlign=middle;resizable=0;points=[];autosize=1;strokeColor=none;fillColor=none;" vertex="1" parent="1">
          <mxGeometry x="615" y="750" width="40" height="30" as="geometry" />
        </mxCell>
        <mxCell id="Gi4iAj_zFG3pSqZzGjvw-100" value="" style="shape=table;startSize=0;container=1;collapsible=0;childLayout=tableLayout;fillColor=#60a917;fontColor=#ffffff;strokeColor=#2D7600;" vertex="1" parent="1">
          <mxGeometry x="320" y="640" width="80" height="80" as="geometry" />
        </mxCell>
        <mxCell id="Gi4iAj_zFG3pSqZzGjvw-101" value="" style="shape=tableRow;horizontal=0;startSize=0;swimlaneHead=0;swimlaneBody=0;strokeColor=inherit;top=0;left=0;bottom=0;right=0;collapsible=0;dropTarget=0;fillColor=none;points=[[0,0.5],[1,0.5]];portConstraint=eastwest;" vertex="1" parent="Gi4iAj_zFG3pSqZzGjvw-100">
          <mxGeometry width="80" height="40" as="geometry" />
        </mxCell>
        <mxCell id="Gi4iAj_zFG3pSqZzGjvw-102" value="A" style="shape=partialRectangle;html=1;whiteSpace=wrap;connectable=0;strokeColor=inherit;overflow=hidden;fillColor=none;top=0;left=0;bottom=0;right=0;pointerEvents=1;" vertex="1" parent="Gi4iAj_zFG3pSqZzGjvw-101">
          <mxGeometry width="80" height="40" as="geometry">
            <mxRectangle width="80" height="40" as="alternateBounds" />
          </mxGeometry>
        </mxCell>
        <mxCell id="Gi4iAj_zFG3pSqZzGjvw-103" value="" style="shape=tableRow;horizontal=0;startSize=0;swimlaneHead=0;swimlaneBody=0;strokeColor=inherit;top=0;left=0;bottom=0;right=0;collapsible=0;dropTarget=0;fillColor=none;points=[[0,0.5],[1,0.5]];portConstraint=eastwest;" vertex="1" parent="Gi4iAj_zFG3pSqZzGjvw-100">
          <mxGeometry y="40" width="80" height="40" as="geometry" />
        </mxCell>
        <mxCell id="Gi4iAj_zFG3pSqZzGjvw-104" value="B" style="shape=partialRectangle;html=1;whiteSpace=wrap;connectable=0;strokeColor=inherit;overflow=hidden;fillColor=none;top=0;left=0;bottom=0;right=0;pointerEvents=1;" vertex="1" parent="Gi4iAj_zFG3pSqZzGjvw-103">
          <mxGeometry width="80" height="40" as="geometry">
            <mxRectangle width="80" height="40" as="alternateBounds" />
          </mxGeometry>
        </mxCell>
        <mxCell id="Gi4iAj_zFG3pSqZzGjvw-106" style="edgeStyle=orthogonalEdgeStyle;rounded=0;orthogonalLoop=1;jettySize=auto;html=1;exitX=1;exitY=0.5;exitDx=0;exitDy=0;entryX=0;entryY=0.5;entryDx=0;entryDy=0;" edge="1" parent="1" source="Gi4iAj_zFG3pSqZzGjvw-101" target="Gi4iAj_zFG3pSqZzGjvw-81">
          <mxGeometry relative="1" as="geometry" />
        </mxCell>
        <mxCell id="Gi4iAj_zFG3pSqZzGjvw-107" style="edgeStyle=orthogonalEdgeStyle;rounded=0;orthogonalLoop=1;jettySize=auto;html=1;exitX=1;exitY=0.5;exitDx=0;exitDy=0;entryX=0;entryY=0.75;entryDx=0;entryDy=0;" edge="1" parent="1" source="Gi4iAj_zFG3pSqZzGjvw-81" target="Gi4iAj_zFG3pSqZzGjvw-65">
          <mxGeometry relative="1" as="geometry" />
        </mxCell>
        <mxCell id="Gi4iAj_zFG3pSqZzGjvw-108" style="edgeStyle=orthogonalEdgeStyle;rounded=0;orthogonalLoop=1;jettySize=auto;html=1;exitX=1;exitY=0.5;exitDx=0;exitDy=0;entryX=0.013;entryY=0.76;entryDx=0;entryDy=0;entryPerimeter=0;" edge="1" parent="1" source="Gi4iAj_zFG3pSqZzGjvw-103" target="Gi4iAj_zFG3pSqZzGjvw-84">
          <mxGeometry relative="1" as="geometry" />
        </mxCell>
        <mxCell id="Gi4iAj_zFG3pSqZzGjvw-109" style="edgeStyle=orthogonalEdgeStyle;rounded=0;orthogonalLoop=1;jettySize=auto;html=1;exitX=1;exitY=0.5;exitDx=0;exitDy=0;entryX=0;entryY=0.75;entryDx=0;entryDy=0;" edge="1" parent="1" source="Gi4iAj_zFG3pSqZzGjvw-84" target="Gi4iAj_zFG3pSqZzGjvw-76">
          <mxGeometry relative="1" as="geometry" />
        </mxCell>
      </root>
    </mxGraphModel>
  </diagram>
</mxfile>
